<svg xmlns="http://www.w3.org/2000/svg" width="64" height="64" fill="none" viewBox="0 0 64 64">
  <!-- Simplified brain outline with 3 neural connections -->
  <path stroke="#111827" stroke-linecap="round" stroke-linejoin="round" stroke-width="1.5"
        d="M32 12c-6 0-10 4-10 10 0 2-2 4-4 4-3 0-5 2-5 5s2 5 5 5c0 3 2 5 5 5 0 4 4 8 9 8 5 0 9-4 9-8 3 0 5-2 5-5 3 0 5-2 5-5s-2-5-5-5c-2 0-4-2-4-4 0-6-4-10-10-10Z"/>
  <!-- Neural connections (3 lines) -->
  <path stroke="#111827" stroke-linecap="round" stroke-width="1.5"
        d="M28 26c-2 2-4 2-6 2M36 26c2 2 4 2 6 2M32 36v4"/>
</svg>
