<svg xmlns="http://www.w3.org/2000/svg" xmlns:xlink="http://www.w3.org/1999/xlink" contentStyleType="text/css" data-diagram-type="SEQUENCE" height="912px" preserveAspectRatio="none" style="width:846px;height:912px;background:#FFFFFF;" version="1.1" viewBox="0 0 846 912" width="846px" zoomAndPan="magnify"><title>CI/CD Pipeline - Self-hosted Runners</title><defs/><g><text fill="#000000" font-family="Verdana" font-size="22" font-weight="bold" lengthAdjust="spacing" textLength="461.1514" x="194.7869" y="37.1182">CI/CD Pipeline - Self-hosted Runners</text><g><title>GitHub</title><rect fill="#FFFFFF" height="483.9897" style="stroke:#000000;stroke-width:1;" width="10" x="146.3936" y="162.5513"/></g><g><title>Self-hosted Runner</title><rect fill="#FFFFFF" height="424.3911" style="stroke:#000000;stroke-width:1;" width="10" x="287.2329" y="192.3506"/></g><g><title>Self-hosted Runner</title><rect fill="#FFFFFF" height="394.5918" style="stroke:#000000;stroke-width:1;" width="10" x="467.0425" y="222.1499"/></g><g><title>Developer</title><rect fill="#000000" fill-opacity="0.00000" height="700.1836" width="8" x="44.564" y="130.752"/><line style="stroke:#000000;stroke-width:1;stroke-dasharray:5,5;" x1="48" x2="48" y1="130.752" y2="830.9355"/></g><g><title>GitHub</title><rect fill="#000000" fill-opacity="0.00000" height="700.1836" width="8" x="147.3936" y="130.752"/><line style="stroke:#000000;stroke-width:1;stroke-dasharray:5,5;" x1="151.2354" x2="151.2354" y1="130.752" y2="830.9355"/></g><g><title>Self-hosted Runner</title><rect fill="#000000" fill-opacity="0.00000" height="700.1836" width="8" x="288.2329" y="130.752"/><line style="stroke:#000000;stroke-width:1;stroke-dasharray:5,5;" x1="291.3281" x2="291.3281" y1="130.752" y2="830.9355"/></g><g><title>Self-hosted Runner</title><rect fill="#000000" fill-opacity="0.00000" height="700.1836" width="8" x="468.0425" y="130.752"/><line style="stroke:#000000;stroke-width:1;stroke-dasharray:5,5;" x1="471.1377" x2="471.1377" y1="130.752" y2="830.9355"/></g><g><title>PostgreSQL</title><rect fill="#000000" fill-opacity="0.00000" height="700.1836" width="8" x="608.8628" y="130.752"/><line style="stroke:#000000;stroke-width:1;stroke-dasharray:5,5;" x1="612.2778" x2="612.2778" y1="130.752" y2="830.9355"/></g><g><title>Production Server</title><rect fill="#000000" fill-opacity="0.00000" height="700.1836" width="8" x="742.4033" y="130.752"/><line style="stroke:#000000;stroke-width:1;stroke-dasharray:5,5;" x1="745.4478" x2="745.4478" y1="130.752" y2="830.9355"/></g><g class="participant participant-head" data-participant="Developer"><text fill="#000000" font-family="Verdana" font-size="14" lengthAdjust="spacing" textLength="71.1279" x="10" y="127.8125">Developer</text><ellipse cx="48.564" cy="61.7373" fill="#FFFFFF" rx="8" ry="8" style="stroke:#000000;stroke-width:1;"/><path d="M48.564,69.7373 L48.564,96.7373 M35.564,77.7373 L61.564,77.7373 M48.564,96.7373 L35.564,111.7373 M48.564,96.7373 L61.564,111.7373" fill="none" style="stroke:#000000;stroke-width:1;"/></g><g class="participant participant-tail" data-participant="Developer"><text fill="#000000" font-family="Verdana" font-size="14" lengthAdjust="spacing" textLength="71.1279" x="10" y="844.0107">Developer</text><ellipse cx="48.564" cy="855.9502" fill="#FFFFFF" rx="8" ry="8" style="stroke:#000000;stroke-width:1;"/><path d="M48.564,863.9502 L48.564,890.9502 M35.564,871.9502 L61.564,871.9502 M48.564,890.9502 L35.564,905.9502 M48.564,890.9502 L61.564,905.9502" fill="none" style="stroke:#000000;stroke-width:1;"/></g><g class="participant participant-head" data-participant="GH"><rect fill="#FFFFFF" height="31.0146" rx="2.5" ry="2.5" style="stroke:#000000;stroke-width:1;" width="62.3164" x="120.2354" y="98.7373"/><text fill="#000000" font-family="Verdana" font-size="14" lengthAdjust="spacing" textLength="48.3164" x="127.2354" y="119.8125">GitHub</text></g><g class="participant participant-tail" data-participant="GH"><rect fill="#FFFFFF" height="31.0146" rx="2.5" ry="2.5" style="stroke:#000000;stroke-width:1;" width="62.3164" x="120.2354" y="829.9355"/><text fill="#000000" font-family="Verdana" font-size="14" lengthAdjust="spacing" textLength="48.3164" x="127.2354" y="851.0107">GitHub</text></g><g class="participant participant-head" data-participant="Runner1"><rect fill="#FFFFFF" height="48.0293" rx="2.5" ry="2.5" style="stroke:#000000;stroke-width:1;" width="149.8096" x="217.3281" y="81.7227"/><text fill="#000000" font-family="Verdana" font-size="14" lengthAdjust="spacing" textLength="135.8096" x="224.3281" y="102.7979">Self-hosted Runner</text><text fill="#000000" font-family="Verdana" font-size="14" lengthAdjust="spacing" textLength="89.1201" x="247.6729" y="119.8125">(Mac mini 1)</text></g><g class="participant participant-tail" data-participant="Runner1"><rect fill="#FFFFFF" height="48.0293" rx="2.5" ry="2.5" style="stroke:#000000;stroke-width:1;" width="149.8096" x="217.3281" y="829.9355"/><text fill="#000000" font-family="Verdana" font-size="14" lengthAdjust="spacing" textLength="135.8096" x="224.3281" y="851.0107">Self-hosted Runner</text><text fill="#000000" font-family="Verdana" font-size="14" lengthAdjust="spacing" textLength="89.1201" x="247.6729" y="868.0254">(Mac mini 1)</text></g><g class="participant participant-head" data-participant="Runner2"><rect fill="#FFFFFF" height="48.0293" rx="2.5" ry="2.5" style="stroke:#000000;stroke-width:1;" width="149.8096" x="397.1377" y="81.7227"/><text fill="#000000" font-family="Verdana" font-size="14" lengthAdjust="spacing" textLength="135.8096" x="404.1377" y="102.7979">Self-hosted Runner</text><text fill="#000000" font-family="Verdana" font-size="14" lengthAdjust="spacing" textLength="89.1201" x="427.4824" y="119.8125">(Mac mini 2)</text></g><g class="participant participant-tail" data-participant="Runner2"><rect fill="#FFFFFF" height="48.0293" rx="2.5" ry="2.5" style="stroke:#000000;stroke-width:1;" width="149.8096" x="397.1377" y="829.9355"/><text fill="#000000" font-family="Verdana" font-size="14" lengthAdjust="spacing" textLength="135.8096" x="404.1377" y="851.0107">Self-hosted Runner</text><text fill="#000000" font-family="Verdana" font-size="14" lengthAdjust="spacing" textLength="89.1201" x="427.4824" y="868.0254">(Mac mini 2)</text></g><g class="participant participant-head" data-participant="DB"><text fill="#000000" font-family="Verdana" font-size="14" lengthAdjust="spacing" textLength="81.1699" x="569.2778" y="127.8125">PostgreSQL</text><path d="M594.8628,77.7373 C594.8628,67.7373 612.8628,67.7373 612.8628,67.7373 C612.8628,67.7373 630.8628,67.7373 630.8628,77.7373 L630.8628,103.7373 C630.8628,113.7373 612.8628,113.7373 612.8628,113.7373 C612.8628,113.7373 594.8628,113.7373 594.8628,103.7373 L594.8628,77.7373" fill="#FFFFFF" style="stroke:#000000;stroke-width:1;"/><path d="M594.8628,77.7373 C594.8628,87.7373 612.8628,87.7373 612.8628,87.7373 C612.8628,87.7373 630.8628,87.7373 630.8628,77.7373" fill="none" style="stroke:#000000;stroke-width:1;"/></g><g class="participant participant-tail" data-participant="DB"><text fill="#000000" font-family="Verdana" font-size="14" lengthAdjust="spacing" textLength="81.1699" x="569.2778" y="844.0107">PostgreSQL</text><path d="M594.8628,856.9502 C594.8628,846.9502 612.8628,846.9502 612.8628,846.9502 C612.8628,846.9502 630.8628,846.9502 630.8628,856.9502 L630.8628,882.9502 C630.8628,892.9502 612.8628,892.9502 612.8628,892.9502 C612.8628,892.9502 594.8628,892.9502 594.8628,882.9502 L594.8628,856.9502" fill="#FFFFFF" style="stroke:#000000;stroke-width:1;"/><path d="M594.8628,856.9502 C594.8628,866.9502 612.8628,866.9502 612.8628,866.9502 C612.8628,866.9502 630.8628,866.9502 630.8628,856.9502" fill="none" style="stroke:#000000;stroke-width:1;"/></g><g class="participant participant-head" data-participant="Prod"><rect fill="#FFFFFF" height="31.0146" rx="2.5" ry="2.5" style="stroke:#000000;stroke-width:1;" width="139.9111" x="676.4478" y="98.7373"/><text fill="#000000" font-family="Verdana" font-size="14" lengthAdjust="spacing" textLength="125.9111" x="683.4478" y="119.8125">Production Server</text></g><g class="participant participant-tail" data-participant="Prod"><rect fill="#FFFFFF" height="31.0146" rx="2.5" ry="2.5" style="stroke:#000000;stroke-width:1;" width="139.9111" x="676.4478" y="829.9355"/><text fill="#000000" font-family="Verdana" font-size="14" lengthAdjust="spacing" textLength="125.9111" x="683.4478" y="851.0107">Production Server</text></g><g><title>GitHub</title><rect fill="#FFFFFF" height="483.9897" style="stroke:#000000;stroke-width:1;" width="10" x="146.3936" y="162.5513"/></g><g><title>Self-hosted Runner</title><rect fill="#FFFFFF" height="424.3911" style="stroke:#000000;stroke-width:1;" width="10" x="287.2329" y="192.3506"/></g><g><title>Self-hosted Runner</title><rect fill="#FFFFFF" height="394.5918" style="stroke:#000000;stroke-width:1;" width="10" x="467.0425" y="222.1499"/></g><g class="message" data-participant-1="Developer" data-participant-2="GH"><polygon fill="#000000" points="134.3936,158.5513,144.3936,162.5513,134.3936,166.5513,138.3936,162.5513" style="stroke:#000000;stroke-width:1;"/><line style="stroke:#000000;stroke-width:1;" x1="48.564" x2="140.3936" y1="162.5513" y2="162.5513"/><text fill="#000000" font-family="Verdana" font-size="13" lengthAdjust="spacing" textLength="52.6855" x="55.564" y="157.8218">git push</text></g><g class="message" data-participant-1="GH" data-participant-2="Runner1"><polygon fill="#000000" points="275.2329,188.3506,285.2329,192.3506,275.2329,196.3506,279.2329,192.3506" style="stroke:#000000;stroke-width:1;"/><line style="stroke:#000000;stroke-width:1;" x1="156.3936" x2="281.2329" y1="192.3506" y2="192.3506"/><text fill="#000000" font-family="Verdana" font-size="13" lengthAdjust="spacing" textLength="111.8394" x="163.3936" y="187.6211">Trigger Workflow</text></g><g class="message" data-participant-1="GH" data-participant-2="Runner2"><polygon fill="#000000" points="455.0425,218.1499,465.0425,222.1499,455.0425,226.1499,459.0425,222.1499" style="stroke:#000000;stroke-width:1;"/><line style="stroke:#000000;stroke-width:1;" x1="156.3936" x2="461.0425" y1="222.1499" y2="222.1499"/><text fill="#000000" font-family="Verdana" font-size="13" lengthAdjust="spacing" textLength="111.8394" x="163.3936" y="217.4204">Trigger Workflow</text></g><g class="message" data-participant-1="Runner1" data-participant-2="Runner1"><line style="stroke:#000000;stroke-width:1;" x1="297.2329" x2="339.2329" y1="267.7485" y2="267.7485"/><line style="stroke:#000000;stroke-width:1;" x1="339.2329" x2="339.2329" y1="267.7485" y2="280.7485"/><line style="stroke:#000000;stroke-width:1;" x1="298.2329" x2="339.2329" y1="280.7485" y2="280.7485"/><polygon fill="#000000" points="308.2329,276.7485,298.2329,280.7485,308.2329,284.7485,304.2329,280.7485" style="stroke:#000000;stroke-width:1;"/><text fill="#000000" font-family="Verdana" font-size="13" lengthAdjust="spacing" textLength="78.4888" x="304.2329" y="247.2197">cargo clippy</text><text fill="#000000" font-family="Verdana" font-size="13" lengthAdjust="spacing" textLength="65.4507" x="304.2329" y="263.019">cargo test</text></g><g class="message" data-participant-1="Runner2" data-participant-2="Runner2"><line style="stroke:#000000;stroke-width:1;" x1="477.0425" x2="519.0425" y1="326.3472" y2="326.3472"/><line style="stroke:#000000;stroke-width:1;" x1="519.0425" x2="519.0425" y1="326.3472" y2="339.3472"/><line style="stroke:#000000;stroke-width:1;" x1="478.0425" x2="519.0425" y1="339.3472" y2="339.3472"/><polygon fill="#000000" points="488.0425,335.3472,478.0425,339.3472,488.0425,343.3472,484.0425,339.3472" style="stroke:#000000;stroke-width:1;"/><text fill="#000000" font-family="Verdana" font-size="13" lengthAdjust="spacing" textLength="80.5962" x="484.0425" y="305.8184">npm run lint</text><text fill="#000000" font-family="Verdana" font-size="13" lengthAdjust="spacing" textLength="84.8745" x="484.0425" y="321.6177">npm run test</text></g><g class="message" data-participant-1="Runner1" data-participant-2="DB"><polygon fill="#000000" points="600.8628,365.1465,610.8628,369.1465,600.8628,373.1465,604.8628,369.1465" style="stroke:#000000;stroke-width:1;"/><line style="stroke:#000000;stroke-width:1;" x1="297.2329" x2="606.8628" y1="369.1465" y2="369.1465"/><text fill="#000000" font-family="Verdana" font-size="13" lengthAdjust="spacing" textLength="97.6206" x="304.2329" y="364.417">Run Migrations</text></g><g class="message" data-participant-1="Runner2" data-participant-2="DB"><polygon fill="#000000" points="600.8628,394.9458,610.8628,398.9458,600.8628,402.9458,604.8628,398.9458" style="stroke:#000000;stroke-width:1;"/><line style="stroke:#000000;stroke-width:1;" x1="477.0425" x2="606.8628" y1="398.9458" y2="398.9458"/><text fill="#000000" font-family="Verdana" font-size="13" lengthAdjust="spacing" textLength="111.8203" x="484.0425" y="394.2163">Integration Tests</text></g><g class="message" data-participant-1="Runner1" data-participant-2="Runner1"><line style="stroke:#000000;stroke-width:1;" x1="297.2329" x2="339.2329" y1="428.7451" y2="428.7451"/><line style="stroke:#000000;stroke-width:1;" x1="339.2329" x2="339.2329" y1="428.7451" y2="441.7451"/><line style="stroke:#000000;stroke-width:1;" x1="298.2329" x2="339.2329" y1="441.7451" y2="441.7451"/><polygon fill="#000000" points="308.2329,437.7451,298.2329,441.7451,308.2329,445.7451,304.2329,441.7451" style="stroke:#000000;stroke-width:1;"/><text fill="#000000" font-family="Verdana" font-size="13" lengthAdjust="spacing" textLength="135.5542" x="304.2329" y="424.0156">cargo build --release</text></g><g class="message" data-participant-1="Runner2" data-participant-2="Runner2"><line style="stroke:#000000;stroke-width:1;" x1="477.0425" x2="519.0425" y1="471.5444" y2="471.5444"/><line style="stroke:#000000;stroke-width:1;" x1="519.0425" x2="519.0425" y1="471.5444" y2="484.5444"/><line style="stroke:#000000;stroke-width:1;" x1="478.0425" x2="519.0425" y1="484.5444" y2="484.5444"/><polygon fill="#000000" points="488.0425,480.5444,478.0425,484.5444,488.0425,488.5444,484.0425,484.5444" style="stroke:#000000;stroke-width:1;"/><text fill="#000000" font-family="Verdana" font-size="13" lengthAdjust="spacing" textLength="91.6729" x="484.0425" y="466.8149">npm run build</text></g><g class="message" data-participant-1="Runner1" data-participant-2="Prod"><polygon fill="#000000" points="734.4033,510.3438,744.4033,514.3438,734.4033,518.3438,738.4033,514.3438" style="stroke:#000000;stroke-width:1;"/><line style="stroke:#000000;stroke-width:1;" x1="297.2329" x2="740.4033" y1="514.3438" y2="514.3438"/><text fill="#000000" font-family="Verdana" font-size="13" lengthAdjust="spacing" textLength="104.8379" x="304.2329" y="509.6143">Deploy Backend</text></g><g class="message" data-participant-1="Runner2" data-participant-2="Prod"><polygon fill="#000000" points="734.4033,540.1431,744.4033,544.1431,734.4033,548.1431,738.4033,544.1431" style="stroke:#000000;stroke-width:1;"/><line style="stroke:#000000;stroke-width:1;" x1="477.0425" x2="740.4033" y1="544.1431" y2="544.1431"/><text fill="#000000" font-family="Verdana" font-size="13" lengthAdjust="spacing" textLength="107.9102" x="484.0425" y="539.4136">Deploy Frontend</text></g><g class="message" data-participant-1="Prod" data-participant-2="Prod"><line style="stroke:#000000;stroke-width:1;" x1="746.4033" x2="788.4033" y1="573.9424" y2="573.9424"/><line style="stroke:#000000;stroke-width:1;" x1="788.4033" x2="788.4033" y1="573.9424" y2="586.9424"/><line style="stroke:#000000;stroke-width:1;" x1="747.4033" x2="788.4033" y1="586.9424" y2="586.9424"/><polygon fill="#000000" points="757.4033,582.9424,747.4033,586.9424,757.4033,590.9424,753.4033,586.9424" style="stroke:#000000;stroke-width:1;"/><text fill="#000000" font-family="Verdana" font-size="13" lengthAdjust="spacing" textLength="86.3218" x="753.4033" y="569.2129">Health Check</text></g><g class="message" data-participant-1="Prod" data-participant-2="GH"><polygon fill="#000000" points="167.3936,612.7417,157.3936,616.7417,167.3936,620.7417,163.3936,616.7417" style="stroke:#000000;stroke-width:1;"/><line style="stroke:#000000;stroke-width:1;stroke-dasharray:2,2;" x1="161.3936" x2="745.4033" y1="616.7417" y2="616.7417"/><text fill="#000000" font-family="Verdana" font-size="13" lengthAdjust="spacing" textLength="135.2686" x="173.3936" y="612.0122">Deployment Success</text></g><g class="message" data-participant-1="GH" data-participant-2="Developer"><polygon fill="#000000" points="59.564,642.541,49.564,646.541,59.564,650.541,55.564,646.541" style="stroke:#000000;stroke-width:1;"/><line style="stroke:#000000;stroke-width:1;stroke-dasharray:2,2;" x1="53.564" x2="150.3936" y1="646.541" y2="646.541"/><text fill="#000000" font-family="Verdana" font-size="13" lengthAdjust="spacing" textLength="73.8296" x="65.564" y="641.8115">Notification</text></g><path d="M297,659.541 L297,732.541 L495,732.541 L495,669.541 L485,659.541 L297,659.541" fill="#FFFFFF" style="stroke:#000000;stroke-width:1;"/><path d="M485,659.541 L485,669.541 L495,669.541 L485,659.541" fill="#FFFFFF" style="stroke:#000000;stroke-width:1;"/><text fill="#000000" font-family="Verdana" font-size="13" lengthAdjust="spacing" textLength="73.2773" x="303" y="677.6108">Rust CI/CD</text><text fill="#000000" font-family="Verdana" font-size="13" lengthAdjust="spacing" textLength="125.8423" x="303" y="693.4102">- Clippy (warnings)</text><text fill="#000000" font-family="Verdana" font-size="13" lengthAdjust="spacing" textLength="177.1187" x="303" y="709.2095">- Tests (unit + integration)</text><text fill="#000000" font-family="Verdana" font-size="13" lengthAdjust="spacing" textLength="106.1519" x="303" y="725.0088">- Build (release)</text><path d="M477,742.7383 L477,815.7383 L601,815.7383 L601,752.7383 L591,742.7383 L477,742.7383" fill="#FFFFFF" style="stroke:#000000;stroke-width:1;"/><path d="M591,742.7383 L591,752.7383 L601,752.7383 L591,742.7383" fill="#FFFFFF" style="stroke:#000000;stroke-width:1;"/><text fill="#000000" font-family="Verdana" font-size="13" lengthAdjust="spacing" textLength="102.4448" x="483" y="760.8081">Frontend CI/CD</text><text fill="#000000" font-family="Verdana" font-size="13" lengthAdjust="spacing" textLength="51.7334" x="483" y="776.6074">- ESLint</text><text fill="#000000" font-family="Verdana" font-size="13" lengthAdjust="spacing" textLength="103.6953" x="483" y="792.4067">- Type checking</text><text fill="#000000" font-family="Verdana" font-size="13" lengthAdjust="spacing" textLength="92.8662" x="483" y="808.2061">- Next.js build</text><!--SRC=[bLDDZzem4BtxLqmvWQgqsXptq0EaNLRQNT6oKYzSZ3CaBiQsx0bR_dqd3e54LAlsbfbvxyt7SpvGZGS4RwIsGf0cWx1u_BmeOAKz6cqHCbYZsMMrYuGb_6YinH25a8fSW0AFQ9p78BmCf9NsqX9C7ZGjc-q4P8I7vRXqAxQnqsUfuA2jXhjP8dM5k_zXvaDcBaf9SYiZmcJ5Z2hW-ljJ0XJpiUegkB9Hf9tbFSCHGqArMI4ksq7sXHU1UwWqWMzYtQwlZvAmtOyhN3_FpA3NeAkAIJzTsE-CUxk2-xs6ZFmV6BaGlVoeavAXSg2CzlwqiLr464dqqgCkrXyWD1ROLjhOFahueNmnPop7yAoh8DlBnA5UAZzQmdCHNbaWlZlWjj6cX2mBQ90zUN-w11x9jMOme41lt0dcKktHbaEHCU1RS3mT8qJAN-jBb8PgMDIezdsnDxRZ7f2VnBfH2cCK9TxuTfFAavNjLIvFvHvU7EcTLkawGme_5M4TVx3RDO7RNNI1lo9rVnu76IoIfJ1zay5gMyLPogPBmxIn_0e_Whvwq9NdwSpJyvLdWcy0RR-_TysPqvzgqFdh-ec5ktOdZw3QQ_48AVE2l-dJhtZswAB_1m00]--></g></svg>