<svg xmlns="http://www.w3.org/2000/svg" xmlns:xlink="http://www.w3.org/1999/xlink" contentStyleType="text/css" data-diagram-type="DESCRIPTION" height="1071px" preserveAspectRatio="none" style="width:780px;height:1071px;background:#FFFFFF;" version="1.1" viewBox="0 0 780 1071" width="780px" zoomAndPan="magnify"><title>Miyabi Web UI Architecture</title><defs/><g><g class="title" data-source-line="3"><text fill="#000000" font-family="Verdana" font-size="22" font-weight="bold" lengthAdjust="spacing" textLength="340.5059" x="215.2471" y="37.1182">Miyabi Web UI Architecture</text></g><!--cluster Frontend--><g class="cluster" data-entity="Frontend" data-source-line="5" data-uid="ent0002" id="cluster_Frontend"><path d="M125.5,58.7373 L197.5869,58.7373 A3.75,3.75 0 0 1 200.0869,61.2373 L207.0869,81.752 L408.5,81.752 A2.5,2.5 0 0 1 411,84.252 L411,284.4573 A2.5,2.5 0 0 1 408.5,286.9573 L125.5,286.9573 A2.5,2.5 0 0 1 123,284.4573 L123,61.2373 A2.5,2.5 0 0 1 125.5,58.7373" fill="#FFFFFF" style="stroke:#000000;stroke-width:1;"/><line style="stroke:#000000;stroke-width:1;" x1="123" x2="207.0869" y1="81.752" y2="81.752"/><text fill="#000000" font-family="Verdana" font-size="14" font-weight="bold" lengthAdjust="spacing" textLength="71.0869" x="127" y="74.8125">Frontend</text></g><!--cluster Backend--><g class="cluster" data-entity="Backend" data-source-line="12" data-uid="ent0007" id="cluster_Backend"><path d="M246.5,339.1573 L314.2051,339.1573 A3.75,3.75 0 0 1 316.7051,341.6573 L323.7051,362.172 L427.5,362.172 A2.5,2.5 0 0 1 430,364.672 L430,685.6973 A2.5,2.5 0 0 1 427.5,688.1973 L246.5,688.1973 A2.5,2.5 0 0 1 244,685.6973 L244,341.6573 A2.5,2.5 0 0 1 246.5,339.1573" fill="#FFFFFF" style="stroke:#000000;stroke-width:1;"/><line style="stroke:#000000;stroke-width:1;" x1="244" x2="323.7051" y1="362.172" y2="362.172"/><text fill="#000000" font-family="Verdana" font-size="14" font-weight="bold" lengthAdjust="spacing" textLength="66.7051" x="248" y="355.2325">Backend</text></g><!--cluster Database--><g class="cluster" data-entity="Database" data-source-line="18" data-uid="ent0011" id="cluster_Database"><path d="M13.5,737.1973 L87.9453,737.1973 A3.75,3.75 0 0 1 90.4453,739.6973 L97.4453,760.212 L437.5,760.212 A2.5,2.5 0 0 1 440,762.712 L440,1061.9173 A2.5,2.5 0 0 1 437.5,1064.4173 L13.5,1064.4173 A2.5,2.5 0 0 1 11,1061.9173 L11,739.6973 A2.5,2.5 0 0 1 13.5,737.1973" fill="#FFFFFF" style="stroke:#000000;stroke-width:1;"/><line style="stroke:#000000;stroke-width:1;" x1="11" x2="97.4453" y1="760.212" y2="760.212"/><text fill="#000000" font-family="Verdana" font-size="14" font-weight="bold" lengthAdjust="spacing" textLength="73.4453" x="15" y="753.2725">Database</text></g><!--cluster DB--><g class="cluster" data-entity="DB" data-source-line="19" data-uid="ent0012" id="cluster_DB"><path d="M43,799.1973 C43,789.1973 225.5,789.1973 225.5,789.1973 C225.5,789.1973 408,789.1973 408,799.1973 L408,1022.4173 C408,1032.4173 225.5,1032.4173 225.5,1032.4173 C225.5,1032.4173 43,1032.4173 43,1022.4173 L43,799.1973" fill="#FFFFFF" style="stroke:#000000;stroke-width:1;"/><path d="M43,799.1973 C43,809.1973 225.5,809.1973 225.5,809.1973 C225.5,809.1973 408,809.1973 408,799.1973" fill="none" style="stroke:#000000;stroke-width:1;"/><text fill="#000000" font-family="Verdana" font-size="14" font-weight="bold" lengthAdjust="spacing" textLength="116.0605" x="167.4697" y="825.2725">PostgreSQL 15</text></g><!--cluster Infrastructure--><g class="cluster" data-entity="Infrastructure" data-source-line="27" data-uid="ent0017" id="cluster_Infrastructure"><path d="M567.5,58.7373 L680.8008,58.7373 A3.75,3.75 0 0 1 683.3008,61.2373 L690.3008,81.752 L770.5,81.752 A2.5,2.5 0 0 1 773,84.252 L773,435.6673 A2.5,2.5 0 0 1 770.5,438.1673 L567.5,438.1673 A2.5,2.5 0 0 1 565,435.6673 L565,61.2373 A2.5,2.5 0 0 1 567.5,58.7373" fill="#FFFFFF" style="stroke:#000000;stroke-width:1;"/><line style="stroke:#000000;stroke-width:1;" x1="565" x2="690.3008" y1="81.752" y2="81.752"/><text fill="#000000" font-family="Verdana" font-size="14" font-weight="bold" lengthAdjust="spacing" textLength="112.3008" x="569" y="74.8125">Infrastructure</text></g><!--entity NextJS--><g class="entity" data-entity="NextJS" data-source-line="6" data-uid="ent0003" id="entity_NextJS"><rect fill="#FFFFFF" height="47.0146" rx="2.5" ry="2.5" style="stroke:#000000;stroke-width:1;" width="112.543" x="282.73" y="223.9473"/><rect fill="#FFFFFF" height="10" style="stroke:#000000;stroke-width:1;" width="15" x="375.273" y="228.9473"/><rect fill="#FFFFFF" height="2" style="stroke:#000000;stroke-width:1;" width="4" x="373.273" y="230.9473"/><rect fill="#FFFFFF" height="2" style="stroke:#000000;stroke-width:1;" width="4" x="373.273" y="234.9473"/><text fill="#000000" font-family="Verdana" font-size="14" lengthAdjust="spacing" textLength="72.543" x="297.73" y="258.0225">Next.js 14</text></g><!--entity React--><g class="entity" data-entity="React" data-source-line="7" data-uid="ent0004" id="entity_React"><rect fill="#FFFFFF" height="47.0146" rx="2.5" ry="2.5" style="stroke:#000000;stroke-width:1;" width="102.0156" x="139.99" y="94.7373"/><rect fill="#FFFFFF" height="10" style="stroke:#000000;stroke-width:1;" width="15" x="222.0056" y="99.7373"/><rect fill="#FFFFFF" height="2" style="stroke:#000000;stroke-width:1;" width="4" x="220.0056" y="101.7373"/><rect fill="#FFFFFF" height="2" style="stroke:#000000;stroke-width:1;" width="4" x="220.0056" y="105.7373"/><text fill="#000000" font-family="Verdana" font-size="14" lengthAdjust="spacing" textLength="62.0156" x="154.99" y="128.8125">React 18</text></g><!--entity UI--><g class="entity" data-entity="UI" data-source-line="8" data-uid="ent0005" id="entity_UI"><rect fill="#FFFFFF" height="47.0146" rx="2.5" ry="2.5" style="stroke:#000000;stroke-width:1;" width="108.4961" x="138.75" y="223.9473"/><rect fill="#FFFFFF" height="10" style="stroke:#000000;stroke-width:1;" width="15" x="227.2461" y="228.9473"/><rect fill="#FFFFFF" height="2" style="stroke:#000000;stroke-width:1;" width="4" x="225.2461" y="230.9473"/><rect fill="#FFFFFF" height="2" style="stroke:#000000;stroke-width:1;" width="4" x="225.2461" y="234.9473"/><text fill="#000000" font-family="Verdana" font-size="14" lengthAdjust="spacing" textLength="68.4961" x="153.75" y="258.0225">shadcn/ui</text></g><!--entity State--><g class="entity" data-entity="State" data-source-line="9" data-uid="ent0006" id="entity_State"><rect fill="#FFFFFF" height="47.0146" rx="2.5" ry="2.5" style="stroke:#000000;stroke-width:1;" width="97.251" x="277.37" y="94.7373"/><rect fill="#FFFFFF" height="10" style="stroke:#000000;stroke-width:1;" width="15" x="354.621" y="99.7373"/><rect fill="#FFFFFF" height="2" style="stroke:#000000;stroke-width:1;" width="4" x="352.621" y="101.7373"/><rect fill="#FFFFFF" height="2" style="stroke:#000000;stroke-width:1;" width="4" x="352.621" y="105.7373"/><text fill="#000000" font-family="Verdana" font-size="14" lengthAdjust="spacing" textLength="57.251" x="292.37" y="128.8125">Zustand</text></g><!--entity Axum--><g class="entity" data-entity="Axum" data-source-line="13" data-uid="ent0008" id="entity_Axum"><rect fill="#FFFFFF" height="47.0146" rx="2.5" ry="2.5" style="stroke:#000000;stroke-width:1;" width="108.1475" x="284.93" y="375.1573"/><rect fill="#FFFFFF" height="10" style="stroke:#000000;stroke-width:1;" width="15" x="373.0775" y="380.1573"/><rect fill="#FFFFFF" height="2" style="stroke:#000000;stroke-width:1;" width="4" x="371.0775" y="382.1573"/><rect fill="#FFFFFF" height="2" style="stroke:#000000;stroke-width:1;" width="4" x="371.0775" y="386.1573"/><text fill="#000000" font-family="Verdana" font-size="14" lengthAdjust="spacing" textLength="68.1475" x="299.93" y="409.2325">Axum 0.7</text></g><!--entity JWT--><g class="entity" data-entity="JWT" data-source-line="14" data-uid="ent0009" id="entity_JWT"><rect fill="#FFFFFF" height="47.0146" rx="2.5" ry="2.5" style="stroke:#000000;stroke-width:1;" width="153.2031" x="260.4" y="501.1673"/><rect fill="#FFFFFF" height="10" style="stroke:#000000;stroke-width:1;" width="15" x="393.6031" y="506.1673"/><rect fill="#FFFFFF" height="2" style="stroke:#000000;stroke-width:1;" width="4" x="391.6031" y="508.1673"/><rect fill="#FFFFFF" height="2" style="stroke:#000000;stroke-width:1;" width="4" x="391.6031" y="512.1673"/><text fill="#000000" font-family="Verdana" font-size="14" lengthAdjust="spacing" textLength="113.2031" x="275.4" y="535.2425">JWT Middleware</text></g><!--entity OAuth--><g class="entity" data-entity="OAuth" data-source-line="15" data-uid="ent0010" id="entity_OAuth"><rect fill="#FFFFFF" height="47.0146" rx="2.5" ry="2.5" style="stroke:#000000;stroke-width:1;" width="137.0635" x="261.47" y="625.1773"/><rect fill="#FFFFFF" height="10" style="stroke:#000000;stroke-width:1;" width="15" x="378.5335" y="630.1773"/><rect fill="#FFFFFF" height="2" style="stroke:#000000;stroke-width:1;" width="4" x="376.5335" y="632.1773"/><rect fill="#FFFFFF" height="2" style="stroke:#000000;stroke-width:1;" width="4" x="376.5335" y="636.1773"/><text fill="#000000" font-family="Verdana" font-size="14" lengthAdjust="spacing" textLength="97.0635" x="276.47" y="659.2525">GitHub OAuth</text></g><!--entity web_users--><g class="entity" data-entity="web_users" data-source-line="20" data-uid="ent0013" id="entity_web_users"><rect fill="#FFFFFF" height="47.0146" rx="2.5" ry="2.5" style="stroke:#000000;stroke-width:1;" width="115.1816" x="91.41" y="848.1973"/><rect fill="#FFFFFF" height="10" style="stroke:#000000;stroke-width:1;" width="15" x="186.5916" y="853.1973"/><rect fill="#FFFFFF" height="2" style="stroke:#000000;stroke-width:1;" width="4" x="184.5916" y="855.1973"/><rect fill="#FFFFFF" height="2" style="stroke:#000000;stroke-width:1;" width="4" x="184.5916" y="859.1973"/><text fill="#000000" font-family="Verdana" font-size="14" lengthAdjust="spacing" textLength="75.1816" x="106.41" y="882.2725">web_users</text></g><!--entity repositories--><g class="entity" data-entity="repositories" data-source-line="21" data-uid="ent0014" id="entity_repositories"><rect fill="#FFFFFF" height="47.0146" rx="2.5" ry="2.5" style="stroke:#000000;stroke-width:1;" width="122.1338" x="241.93" y="848.1973"/><rect fill="#FFFFFF" height="10" style="stroke:#000000;stroke-width:1;" width="15" x="344.0638" y="853.1973"/><rect fill="#FFFFFF" height="2" style="stroke:#000000;stroke-width:1;" width="4" x="342.0638" y="855.1973"/><rect fill="#FFFFFF" height="2" style="stroke:#000000;stroke-width:1;" width="4" x="342.0638" y="859.1973"/><text fill="#000000" font-family="Verdana" font-size="14" lengthAdjust="spacing" textLength="82.1338" x="256.93" y="882.2725">repositories</text></g><!--entity agent_executions--><g class="entity" data-entity="agent_executions" data-source-line="22" data-uid="ent0015" id="entity_agent_executions"><rect fill="#FFFFFF" height="47.0146" rx="2.5" ry="2.5" style="stroke:#000000;stroke-width:1;" width="163.874" x="67.06" y="961.4073"/><rect fill="#FFFFFF" height="10" style="stroke:#000000;stroke-width:1;" width="15" x="210.934" y="966.4073"/><rect fill="#FFFFFF" height="2" style="stroke:#000000;stroke-width:1;" width="4" x="208.934" y="968.4073"/><rect fill="#FFFFFF" height="2" style="stroke:#000000;stroke-width:1;" width="4" x="208.934" y="972.4073"/><text fill="#000000" font-family="Verdana" font-size="14" lengthAdjust="spacing" textLength="123.874" x="82.06" y="995.4825">agent_executions</text></g><!--entity workflows--><g class="entity" data-entity="workflows" data-source-line="23" data-uid="ent0016" id="entity_workflows"><rect fill="#FFFFFF" height="47.0146" rx="2.5" ry="2.5" style="stroke:#000000;stroke-width:1;" width="110.2256" x="265.89" y="961.4073"/><rect fill="#FFFFFF" height="10" style="stroke:#000000;stroke-width:1;" width="15" x="356.1156" y="966.4073"/><rect fill="#FFFFFF" height="2" style="stroke:#000000;stroke-width:1;" width="4" x="354.1156" y="968.4073"/><rect fill="#FFFFFF" height="2" style="stroke:#000000;stroke-width:1;" width="4" x="354.1156" y="972.4073"/><text fill="#000000" font-family="Verdana" font-size="14" lengthAdjust="spacing" textLength="70.2256" x="280.89" y="995.4825">workflows</text></g><!--entity GHA--><g class="entity" data-entity="GHA" data-source-line="28" data-uid="ent0018" id="entity_GHA"><rect fill="#FFFFFF" height="47.0146" rx="2.5" ry="2.5" style="stroke:#000000;stroke-width:1;" width="144.1113" x="596.94" y="94.7373"/><rect fill="#FFFFFF" height="10" style="stroke:#000000;stroke-width:1;" width="15" x="721.0513" y="99.7373"/><rect fill="#FFFFFF" height="2" style="stroke:#000000;stroke-width:1;" width="4" x="719.0513" y="101.7373"/><rect fill="#FFFFFF" height="2" style="stroke:#000000;stroke-width:1;" width="4" x="719.0513" y="105.7373"/><text fill="#000000" font-family="Verdana" font-size="14" lengthAdjust="spacing" textLength="104.1113" x="611.94" y="128.8125">GitHub Actions</text></g><!--entity Runner--><g class="entity" data-entity="Runner" data-source-line="29" data-uid="ent0019" id="entity_Runner"><rect fill="#FFFFFF" height="47.0146" rx="2.5" ry="2.5" style="stroke:#000000;stroke-width:1;" width="175.8096" x="581.1" y="223.9473"/><rect fill="#FFFFFF" height="10" style="stroke:#000000;stroke-width:1;" width="15" x="736.9096" y="228.9473"/><rect fill="#FFFFFF" height="2" style="stroke:#000000;stroke-width:1;" width="4" x="734.9096" y="230.9473"/><rect fill="#FFFFFF" height="2" style="stroke:#000000;stroke-width:1;" width="4" x="734.9096" y="234.9473"/><text fill="#000000" font-family="Verdana" font-size="14" lengthAdjust="spacing" textLength="135.8096" x="596.1" y="258.0225">Self-hosted Runner</text></g><!--entity MacMini--><g class="entity" data-entity="MacMini" data-source-line="30" data-uid="ent0020" id="entity_MacMini"><rect fill="#FFFFFF" height="47.0146" rx="2.5" ry="2.5" style="stroke:#000000;stroke-width:1;" width="124.6904" x="606.65" y="375.1573"/><rect fill="#FFFFFF" height="10" style="stroke:#000000;stroke-width:1;" width="15" x="711.3404" y="380.1573"/><rect fill="#FFFFFF" height="2" style="stroke:#000000;stroke-width:1;" width="4" x="709.3404" y="382.1573"/><rect fill="#FFFFFF" height="2" style="stroke:#000000;stroke-width:1;" width="4" x="709.3404" y="386.1573"/><text fill="#000000" font-family="Verdana" font-size="14" lengthAdjust="spacing" textLength="84.6904" x="621.65" y="409.2325">Mac mini x2</text></g><g class="entity" data-entity="GMN30" data-source-line="44" data-uid="ent0031" id="entity_GMN30"><path d="M429.81,218.7573 L429.81,243.4573 L395.75,247.4573 L429.81,251.4573 L429.81,276.1553 A0,0 0 0 0 429.81,276.1553 L546.1835,276.1553 A0,0 0 0 0 546.1835,276.1553 L546.1835,228.7573 L536.1835,218.7573 L429.81,218.7573 A0,0 0 0 0 429.81,218.7573" fill="#FFFFFF" style="stroke:#000000;stroke-width:1;"/><path d="M536.1835,218.7573 L536.1835,228.7573 L546.1835,228.7573 L536.1835,218.7573" fill="#FFFFFF" style="stroke:#000000;stroke-width:1;"/><text fill="#000000" font-family="Verdana" font-size="13" lengthAdjust="spacing" textLength="73.2266" x="435.81" y="236.8271">App Router</text><text fill="#000000" font-family="Verdana" font-size="13" lengthAdjust="spacing" textLength="95.3735" x="435.81" y="252.6264">TypeScript 5.3</text><text fill="#000000" font-family="Verdana" font-size="13" lengthAdjust="spacing" textLength="84.9063" x="435.81" y="268.4258">Tailwind CSS</text></g><g class="entity" data-entity="GMN33" data-source-line="50" data-uid="ent0034" id="entity_GMN33"><path d="M455.64,843.0073 L455.64,900.4053 L600.3685,900.4053 L600.3685,853.0073 L590.3685,843.0073 L455.64,843.0073" fill="#FFFFFF" style="stroke:#000000;stroke-width:1;"/><path d="M590.3685,843.0073 L590.3685,853.0073 L600.3685,853.0073 L590.3685,843.0073" fill="#FFFFFF" style="stroke:#000000;stroke-width:1;"/><text fill="#000000" font-family="Verdana" font-size="13" lengthAdjust="spacing" textLength="54.8374" x="461.64" y="861.0771">7 Tables</text><text fill="#000000" font-family="Verdana" font-size="13" lengthAdjust="spacing" textLength="123.7285" x="461.64" y="876.8764">Indexes &amp; Triggers</text><text fill="#000000" font-family="Verdana" font-size="13" lengthAdjust="spacing" textLength="105.5298" x="461.64" y="892.6758">Full Text Search</text></g><!--link NextJS to Axum--><g class="link" data-entity-1="NextJS" data-entity-2="Axum" data-source-line="33" data-uid="lnk21" id="link_NextJS_Axum"><path d="M339,271.4373 C339,299.5573 339,340.8673 339,368.8873" fill="none" id="NextJS-to-Axum" style="stroke:#000000;stroke-width:1;"/><polygon fill="#000000" points="339,374.8873,343,365.8873,339,369.8873,335,365.8873,339,374.8873" style="stroke:#000000;stroke-width:1;"/><text fill="#000000" font-family="Verdana" font-size="13" lengthAdjust="spacing" textLength="60.9248" x="340" y="320.2271">REST API</text></g><!--link React to UI--><g class="link" data-entity-1="React" data-entity-2="UI" data-source-line="34" data-uid="lnk22" id="link_React_UI"><path d="M191.36,141.9873 C191.72,164.9973 192.1865,194.388 192.5465,217.478" fill="none" id="React-to-UI" style="stroke:#000000;stroke-width:1;"/><polygon fill="#000000" points="192.64,223.4773,196.4992,214.416,192.5621,218.4779,188.5002,214.5408,192.64,223.4773" style="stroke:#000000;stroke-width:1;"/></g><!--link State to NextJS--><g class="link" data-entity-1="State" data-entity-2="NextJS" data-source-line="35" data-uid="lnk23" id="link_State_NextJS"><path d="M328.32,141.9873 C330.68,164.9973 333.6799,194.4184 336.0399,217.5084" fill="none" id="State-to-NextJS" style="stroke:#000000;stroke-width:1;"/><polygon fill="#000000" points="336.65,223.4773,339.7142,214.1172,336.1416,218.5032,331.7556,214.9307,336.65,223.4773" style="stroke:#000000;stroke-width:1;"/><text fill="#000000" font-family="Verdana" font-size="13" lengthAdjust="spacing" textLength="123.6333" x="333.89" y="185.8271">State Management</text></g><!--link Axum to JWT--><g class="link" data-entity-1="Axum" data-entity-2="JWT" data-source-line="36" data-uid="lnk24" id="link_Axum_JWT"><path d="M338.63,422.4073 C338.27,444.7773 337.8167,472.7481 337.4567,495.0781" fill="none" id="Axum-to-JWT" style="stroke:#000000;stroke-width:1;"/><polygon fill="#000000" points="337.36,501.0773,341.5046,492.143,337.4406,496.078,333.5056,492.014,337.36,501.0773" style="stroke:#000000;stroke-width:1;"/><text fill="#000000" font-family="Verdana" font-size="13" lengthAdjust="spacing" textLength="94.5103" x="339.12" y="468.2371">Authentication</text></g><!--link JWT to OAuth--><g class="link" data-entity-1="JWT" data-entity-2="OAuth" data-source-line="37" data-uid="lnk25" id="link_JWT_OAuth"><path d="M335.68,548.6273 C334.43,570.4373 332.9038,597.0672 331.6538,618.8472" fill="none" id="JWT-to-OAuth" style="stroke:#000000;stroke-width:1;"/><polygon fill="#000000" points="331.31,624.8373,335.8191,616.0813,331.5965,619.8455,327.8323,615.6229,331.31,624.8373" style="stroke:#000000;stroke-width:1;"/><text fill="#000000" font-family="Verdana" font-size="13" lengthAdjust="spacing" textLength="79.8979" x="334.92" y="592.2471">GitHub Auth</text></g><!--link OAuth to DB--><g class="link" data-entity-1="OAuth" data-entity-2="DB" data-source-line="38" data-uid="lnk26" id="link_OAuth_DB"><path d="M320.73,672.4073 C316.01,688.0073 313.43,708.1673 325,721.1973 C344.91,743.6273 371.47,707.3373 392,729.1973 C413.23,751.7923 415.5,786.4248 412.3312,815.7723 C411.5391,823.1092 410.407,830.1157 409.1462,836.5213 C408.831,838.1227 408.5078,839.6866 408.1798,841.2086 C408.1388,841.3989 409.3742,835.7258 409.3331,835.9148" fill="none" id="OAuth-to-DB" style="stroke:#000000;stroke-width:1;"/><polygon fill="#000000" points="408.0566,841.7774,413.8797,833.8344,409.1203,836.8919,406.0629,832.1325,408.0566,841.7774" style="stroke:#000000;stroke-width:1;"/><text fill="#000000" font-family="Verdana" font-size="13" lengthAdjust="spacing" textLength="118.5298" x="326" y="718.2671">User Management</text></g><!--link Axum to DB--><g class="link" data-entity-1="Axum" data-entity-2="DB" data-source-line="39" data-uid="lnk27" id="link_Axum_DB"><path d="M393.34,415.7073 C412,424.0673 430.95,436.3773 442,454.1673 C500.68,548.5873 447.44,593.0373 449,704.1973 C449.11,711.7473 452.43,714.4673 449,721.1973 C446.26,726.5873 441.42,724.2173 438,729.1973 C428.9225,742.4048 422.0113,757.6817 416.7498,773.2095 C414.1191,780.9734 411.9009,788.8 410.0306,796.4621 C409.563,798.3776 409.1171,800.2829 408.692,802.1743 C408.4795,803.12 409.5367,798.197 409.3344,799.1353" fill="none" id="Axum-to-DB" style="stroke:#000000;stroke-width:1;"/><polygon fill="#000000" points="408.0698,805.0005,413.8768,797.0457,409.1236,800.1128,406.0565,795.3596,408.0698,805.0005" style="stroke:#000000;stroke-width:1;"/><text fill="#000000" font-family="Verdana" font-size="13" lengthAdjust="spacing" textLength="79.0474" x="466.78" y="592.2471">Data Access</text></g><!--link GHA to Runner--><g class="link" data-entity-1="GHA" data-entity-2="Runner" data-source-line="40" data-uid="lnk28" id="link_GHA_Runner"><path d="M669,141.9873 C669,164.9973 669,194.3873 669,217.4773" fill="none" id="GHA-to-Runner" style="stroke:#000000;stroke-width:1;"/><polygon fill="#000000" points="669,223.4773,673,214.4773,669,218.4773,665,214.4773,669,223.4773" style="stroke:#000000;stroke-width:1;"/><text fill="#000000" font-family="Verdana" font-size="13" lengthAdjust="spacing" textLength="39.5459" x="670" y="185.8271">CI/CD</text></g><!--link Runner to MacMini--><g class="link" data-entity-1="Runner" data-entity-2="MacMini" data-source-line="41" data-uid="lnk29" id="link_Runner_MacMini"><path d="M669,271.4373 C669,299.5573 669,340.8673 669,368.8873" fill="none" id="Runner-to-MacMini" style="stroke:#000000;stroke-width:1;"/><polygon fill="#000000" points="669,374.8873,673,365.8873,669,369.8873,665,365.8873,669,374.8873" style="stroke:#000000;stroke-width:1;"/><text fill="#000000" font-family="Verdana" font-size="13" lengthAdjust="spacing" textLength="78.749" x="670" y="320.2271">Deployment</text></g><!--link DB to GMN33--><g class="link" data-entity-1="DB" data-entity-2="GMN33" data-source-line="50" data-uid="lnk35" id="link_DB_GMN33"><path d="M408.013,871.7073 C408.1554,871.7073 408.2978,871.7073 408.4402,871.7073 C408.725,871.7073 409.0099,871.7073 409.2947,871.7073 C409.8643,871.7073 410.4339,871.7073 411.0035,871.7073 C412.1426,871.7073 413.2818,871.7073 414.4209,871.7073 C418.9775,871.7073 423.5338,871.7073 428.09,871.7073 C437.2025,871.7073 446.315,871.7073 455.43,871.7073" fill="none" id="DB-GMN33" style="stroke:#000000;stroke-width:1;stroke-dasharray:7,7;"/></g><!--SRC=[RLDTRzD047o_Nx7aWRUa5AYAye3a9BHrHMY94rK2LTNvl8cFEdVMVIY9KFyxksT7eOYtcvdrtExi-KseSOlGDb8R8O8E3S9S7sIfuG5BMEMGELNhW2f4XqAqKZtB3SBWobaJq5G3-2q0Vdx3VHZzyd3-yH6a1uQt1GiBb2h0-QT49y2ihsMbp5dKYLxbpFs8FaXJ9QO8Cg1u-Uk-2HrErsNxk8LteyjKp839suSbzLvL3UwamoGHnSgr3ZUnXBiiXZhnwVJAVoQ3BAN7xeAgHp2ujpvi71RVlyBvnO2_dKrI2Tdki7oA7fr_xB33rdeThDDufCZRX2VSeuf1MtEaTzOzhnkxI_ZbLIEvMJlfWuifyNxUVe1CTIRSnlLDnag1pNfOKvDOmI8QWwvBEXsvO2uLRBNHi7-V5C9pWdndjoKO3Z-d364CYo_54hBxN7HhOuMMaxQHGF_5k5iGUHdgUKiZYcJ09Ro5CN2-H6ibkMF198ifTvAFy_0MEevLIdOCAmhqlyP9vJLH30gz5vH04hfPIPpcPzEPw24h_Qpy7RQDFIH3OIorxlIc3c3NfwUQjIqiR0mfjkMXnK8vtGQu67rWGkfcfqq5qw8Gz121NVxrcaseyf9gomOz7NDJqUezl8KbrMpefH1v5Pi6bdGh52Zfvpgv_G40]--></g></svg>