<svg xmlns="http://www.w3.org/2000/svg" viewBox="0 0 32 32" fill="none">
  <!-- Background -->
  <rect width="32" height="32" rx="6" fill="#1A1A2E"/>

  <!-- B Letter (more detailed for 32px) -->
  <path d="M 10 8 L 10 24 L 18 24 C 21 24 23 22 23 20 C 23 18.5 22 17 20.5 16.5 C 21.5 16 22 15 22 14 C 22 12 20.5 8 17 8 Z M 13 11 L 17 11 C 18.5 11 19.5 11.8 19.5 13 C 19.5 14.2 18.5 15 17 15 L 13 15 Z M 13 17 L 18 17 C 19.2 17 20 18 20 19.5 C 20 21 19.2 21 18 21 L 13 21 Z" fill="#FF6B00"/>

  <!-- Subtle glow -->
  <circle cx="24" cy="10" r="2" fill="#FF6B00" opacity="0.4"/>
</svg>
